<svg width="18" height="16" viewBox="0 0 18 16" fill="none" xmlns="http://www.w3.org/2000/svg">
<path d="M17.25 1.24997C16.5318 1.75658 15.7366 2.14406 14.895 2.39747C14.4433 1.87811 13.843 1.50999 13.1753 1.34292C12.5076 1.17584 11.8046 1.21787 11.1616 1.46331C10.5185 1.70876 9.96633 2.14577 9.57974 2.71526C9.19314 3.28475 8.99077 3.95923 9 4.64747V5.39747C7.68198 5.43165 6.37596 5.13933 5.19826 4.54656C4.02056 3.95378 3.00774 3.07895 2.25 1.99997C2.25 1.99997 -0.75 8.74997 6 11.75C4.4554 12.7984 2.61537 13.3242 0.75 13.25C7.5 17 15.75 13.25 15.75 4.62497C15.7493 4.41606 15.7292 4.20767 15.69 4.00247C16.4555 3.24759 16.9956 2.29451 17.25 1.24997Z" stroke="white" stroke-width="2" stroke-linecap="round" stroke-linejoin="round"/>
</svg>
