<svg width="24" height="28" viewBox="0 0 24 28" fill="none" xmlns="http://www.w3.org/2000/svg">
<path d="M15.6 5.83564H14.4V4.6691H15.6V5.83564ZM9.6 5.83564H8.4V4.6691H9.6V5.83564ZM16.236 2.52265L17.808 0.99448C18.036 0.772836 18.036 0.399542 17.808 0.166233C17.568 -0.0554109 17.184 -0.0554109 16.956 0.166233L15.18 1.89272C14.22 1.43777 13.14 1.16946 12 1.16946C10.848 1.16946 9.768 1.43777 8.808 1.90438L7.02 0.166233C6.792 -0.0554109 6.408 -0.0554109 6.18 0.166233C5.94 0.399542 5.94 0.772836 6.18 0.99448L7.752 2.52265C5.964 3.80585 4.8 5.83564 4.8 8.16873H19.2C19.2 5.83564 18 3.79419 16.236 2.52265ZM22.2 9.33528C21.7226 9.33528 21.2648 9.51963 20.9272 9.84779C20.5896 10.1759 20.4 10.621 20.4 11.0851V19.2509C20.4 19.715 20.5896 20.1601 20.9272 20.4882C21.2648 20.8164 21.7226 21.0007 22.2 21.0007C22.6774 21.0007 23.1352 20.8164 23.4728 20.4882C23.8104 20.1601 24 19.715 24 19.2509V11.0851C24 10.621 23.8104 10.1759 23.4728 9.84779C23.1352 9.51963 22.6774 9.33528 22.2 9.33528ZM1.8 9.33528C1.32261 9.33528 0.864773 9.51963 0.527208 9.84779C0.189642 10.1759 0 10.621 0 11.0851V19.2509C0 19.715 0.189642 20.1601 0.527208 20.4882C0.864773 20.8164 1.32261 21.0007 1.8 21.0007C2.27739 21.0007 2.73523 20.8164 3.07279 20.4882C3.41036 20.1601 3.6 19.715 3.6 19.2509V11.0851C3.6 10.621 3.41036 10.1759 3.07279 9.84779C2.73523 9.51963 2.27739 9.33528 1.8 9.33528ZM4.8 21.0007C4.8 21.3101 4.92643 21.6068 5.15147 21.8256C5.37652 22.0444 5.68174 22.1673 6 22.1673H7.2V26.2502C7.2 26.7143 7.38964 27.1593 7.72721 27.4875C8.06477 27.8156 8.52261 28 9 28C9.47739 28 9.93523 27.8156 10.2728 27.4875C10.6104 27.1593 10.8 26.7143 10.8 26.2502V22.1673H13.2V26.2502C13.2 26.7143 13.3896 27.1593 13.7272 27.4875C14.0648 27.8156 14.5226 28 15 28C15.4774 28 15.9352 27.8156 16.2728 27.4875C16.6104 27.1593 16.8 26.7143 16.8 26.2502V22.1673H18C18.3183 22.1673 18.6235 22.0444 18.8485 21.8256C19.0736 21.6068 19.2 21.3101 19.2 21.0007V9.33528H4.8V21.0007Z" fill="white"/>
</svg>
