<svg width="127" height="48" viewBox="0 0 127 48" fill="none" xmlns="http://www.w3.org/2000/svg">
<rect width="127" height="48" fill="#E5E5E5"/>
<g clip-path="url(#clip0)">
<rect width="1600" height="3215" transform="translate(-1197 -2924)" fill="white"/>
<rect x="-1083" y="-436" width="1372" height="515" rx="15" fill="#089285"/>
<rect width="127" height="48" rx="8" fill="#2D3436"/>
<path d="M47.3942 38L48.3658 35.0149H53.0895L54.0611 38H57.027L52.5142 24.9091H48.9474L44.4283 38H47.3942ZM49.0689 32.8544L50.6797 27.9006H50.782L52.3928 32.8544H49.0689ZM61.4745 32.3239C61.4809 31.0582 62.2352 30.3168 63.3346 30.3168C64.4276 30.3168 65.086 31.0327 65.0796 32.2344V38H67.8026V31.7486C67.8026 29.4602 66.4603 28.054 64.4148 28.054C62.9575 28.054 61.9028 28.7699 61.4617 29.9141H61.3467V28.1818H58.7515V38H61.4745V32.3239ZM73.7667 38.1598C75.3519 38.1598 76.1765 37.2457 76.5536 36.4276H76.6686V38H79.3533V24.9091H76.6367V29.831H76.5536C76.1892 29.032 75.403 28.054 73.7603 28.054C71.6061 28.054 69.7844 29.7287 69.7844 33.1037C69.7844 36.3892 71.5294 38.1598 73.7667 38.1598ZM74.6296 35.9929C73.2936 35.9929 72.565 34.804 72.565 33.0909C72.565 31.3906 73.2809 30.2209 74.6296 30.2209C75.9527 30.2209 76.6942 31.3395 76.6942 33.0909C76.6942 34.8423 75.94 35.9929 74.6296 35.9929ZM81.7921 38H84.5151V32.4453C84.5151 31.2372 85.3972 30.4062 86.5989 30.4062C86.9761 30.4062 87.4938 30.4702 87.7495 30.5533V28.1371C87.5066 28.0795 87.1678 28.0412 86.893 28.0412C85.7935 28.0412 84.8923 28.6804 84.5343 29.8949H84.432V28.1818H81.7921V38ZM93.3364 38.1918C96.3151 38.1918 98.1688 36.1527 98.1688 33.1293C98.1688 30.0866 96.3151 28.054 93.3364 28.054C90.3577 28.054 88.504 30.0866 88.504 33.1293C88.504 36.1527 90.3577 38.1918 93.3364 38.1918ZM93.3492 36.0824C91.9749 36.0824 91.2718 34.8232 91.2718 33.1101C91.2718 31.397 91.9749 30.1314 93.3492 30.1314C94.6979 30.1314 95.401 31.397 95.401 33.1101C95.401 34.8232 94.6979 36.0824 93.3492 36.0824ZM100.139 38H102.862V28.1818H100.139V38ZM101.507 26.9162C102.319 26.9162 102.984 26.2962 102.984 25.5355C102.984 24.7812 102.319 24.1612 101.507 24.1612C100.702 24.1612 100.037 24.7812 100.037 25.5355C100.037 26.2962 100.702 26.9162 101.507 26.9162ZM108.862 38.1598C110.447 38.1598 111.271 37.2457 111.649 36.4276H111.764V38H114.448V24.9091H111.732V29.831H111.649C111.284 29.032 110.498 28.054 108.855 28.054C106.701 28.054 104.879 29.7287 104.879 33.1037C104.879 36.3892 106.624 38.1598 108.862 38.1598ZM109.725 35.9929C108.389 35.9929 107.66 34.804 107.66 33.0909C107.66 31.3906 108.376 30.2209 109.725 30.2209C111.048 30.2209 111.789 31.3395 111.789 33.0909C111.789 34.8423 111.035 35.9929 109.725 35.9929Z" fill="white"/>
<path d="M52.1932 12H53.4659C53.0881 10.0312 51.4375 8.67898 49.2898 8.67898C46.6797 8.67898 44.8352 10.6875 44.8352 13.9091C44.8352 17.1307 46.6648 19.1392 49.3693 19.1392C51.7955 19.1392 53.5256 17.5234 53.5256 15.0028V13.9091H49.6477V15.0028H52.3324C52.2976 16.8324 51.0945 17.9858 49.3693 17.9858C47.4801 17.9858 46.0284 16.554 46.0284 13.9091C46.0284 11.2642 47.4801 9.83239 49.2898 9.83239C50.7614 9.83239 51.7607 10.6626 52.1932 12ZM58.9299 19.1591C60.481 19.1591 61.6145 18.3835 61.9725 17.2301L60.839 16.9119C60.5407 17.7074 59.8496 18.1051 58.9299 18.1051C57.5527 18.1051 56.6032 17.2152 56.5485 15.5795H62.0918V15.0824C62.0918 12.2386 60.4015 11.2642 58.8105 11.2642C56.7424 11.2642 55.3702 12.8949 55.3702 15.2415C55.3702 17.5881 56.7225 19.1591 58.9299 19.1591ZM56.5485 14.5653C56.628 13.3771 57.4682 12.3182 58.8105 12.3182C60.0833 12.3182 60.8986 13.2727 60.8986 14.5653H56.5485ZM67.4476 11.3636H65.8169V9.53409H64.6436V11.3636H63.4902V12.358H64.6436V17.1307C64.6436 18.4631 65.7175 19.0994 66.7118 19.0994C67.1493 19.0994 67.4277 19.0199 67.5868 18.9602L67.3482 17.9062C67.2488 17.9261 67.0897 17.9659 66.8311 17.9659C66.3141 17.9659 65.8169 17.8068 65.8169 16.8125V12.358H67.4476V11.3636ZM73.65 19H74.8233V11.3636H73.65V19ZM74.2466 10.0909C74.704 10.0909 75.0819 9.73295 75.0819 9.29545C75.0819 8.85795 74.704 8.5 74.2466 8.5C73.7892 8.5 73.4114 8.85795 73.4114 9.29545C73.4114 9.73295 73.7892 10.0909 74.2466 10.0909ZM80.5433 11.3636H78.9126V9.53409H77.7393V11.3636H76.5859V12.358H77.7393V17.1307C77.7393 18.4631 78.8132 19.0994 79.8075 19.0994C80.245 19.0994 80.5234 19.0199 80.6825 18.9602L80.4439 17.9062C80.3445 17.9261 80.1854 17.9659 79.9268 17.9659C79.4098 17.9659 78.9126 17.8068 78.9126 16.8125V12.358H80.5433V11.3636ZM89.848 19.1591C91.9162 19.1591 93.3082 17.5881 93.3082 15.2216C93.3082 12.8352 91.9162 11.2642 89.848 11.2642C87.7798 11.2642 86.3878 12.8352 86.3878 15.2216C86.3878 17.5881 87.7798 19.1591 89.848 19.1591ZM89.848 18.1051C88.277 18.1051 87.5611 16.7528 87.5611 15.2216C87.5611 13.6903 88.277 12.3182 89.848 12.3182C91.419 12.3182 92.1349 13.6903 92.1349 15.2216C92.1349 16.7528 91.419 18.1051 89.848 18.1051ZM96.5225 14.4062C96.5225 13.0739 97.3478 12.3182 98.4714 12.3182C99.5602 12.3182 100.221 13.0291 100.221 14.2273V19H101.395V14.1477C101.395 12.1989 100.356 11.2642 98.8095 11.2642C97.6561 11.2642 96.9402 11.7812 96.5822 12.5568H96.4828V11.3636H95.3493V19H96.5225V14.4062Z" fill="white"/>
<path d="M25.6 15.8356H24.4V14.6691H25.6V15.8356ZM19.6 15.8356H18.4V14.6691H19.6V15.8356ZM26.236 12.5227L27.808 10.9945C28.036 10.7728 28.036 10.3995 27.808 10.1662C27.568 9.94459 27.184 9.94459 26.956 10.1662L25.18 11.8927C24.22 11.4378 23.14 11.1695 22 11.1695C20.848 11.1695 19.768 11.4378 18.808 11.9044L17.02 10.1662C16.792 9.94459 16.408 9.94459 16.18 10.1662C15.94 10.3995 15.94 10.7728 16.18 10.9945L17.752 12.5227C15.964 13.8059 14.8 15.8356 14.8 18.1687H29.2C29.2 15.8356 28 13.7942 26.236 12.5227ZM32.2 19.3353C31.7226 19.3353 31.2648 19.5196 30.9272 19.8478C30.5896 20.1759 30.4 20.621 30.4 21.0851V29.2509C30.4 29.715 30.5896 30.1601 30.9272 30.4882C31.2648 30.8164 31.7226 31.0007 32.2 31.0007C32.6774 31.0007 33.1352 30.8164 33.4728 30.4882C33.8104 30.1601 34 29.715 34 29.2509V21.0851C34 20.621 33.8104 20.1759 33.4728 19.8478C33.1352 19.5196 32.6774 19.3353 32.2 19.3353ZM11.8 19.3353C11.3226 19.3353 10.8648 19.5196 10.5272 19.8478C10.1896 20.1759 10 20.621 10 21.0851V29.2509C10 29.715 10.1896 30.1601 10.5272 30.4882C10.8648 30.8164 11.3226 31.0007 11.8 31.0007C12.2774 31.0007 12.7352 30.8164 13.0728 30.4882C13.4104 30.1601 13.6 29.715 13.6 29.2509V21.0851C13.6 20.621 13.4104 20.1759 13.0728 19.8478C12.7352 19.5196 12.2774 19.3353 11.8 19.3353ZM14.8 31.0007C14.8 31.3101 14.9264 31.6068 15.1515 31.8256C15.3765 32.0444 15.6817 32.1673 16 32.1673H17.2V36.2502C17.2 36.7143 17.3896 37.1593 17.7272 37.4875C18.0648 37.8156 18.5226 38 19 38C19.4774 38 19.9352 37.8156 20.2728 37.4875C20.6104 37.1593 20.8 36.7143 20.8 36.2502V32.1673H23.2V36.2502C23.2 36.7143 23.3896 37.1593 23.7272 37.4875C24.0648 37.8156 24.5226 38 25 38C25.4774 38 25.9352 37.8156 26.2728 37.4875C26.6104 37.1593 26.8 36.7143 26.8 36.2502V32.1673H28C28.3183 32.1673 28.6235 32.0444 28.8485 31.8256C29.0736 31.6068 29.2 31.3101 29.2 31.0007V19.3353H14.8V31.0007Z" fill="white"/>
</g>
<defs>
<clipPath id="clip0">
<rect width="1600" height="3215" fill="white" transform="translate(-1197 -2924)"/>
</clipPath>
</defs>
</svg>
