<svg width="146" height="48" viewBox="0 0 146 48" fill="none" xmlns="http://www.w3.org/2000/svg">
<rect width="146" height="48" fill="#E5E5E5"/>
<g clip-path="url(#clip0)">
<rect width="1600" height="3215" transform="translate(-930 -2924)" fill="white"/>
<rect x="-816" y="-436" width="1372" height="515" rx="15" fill="#089285"/>
<rect width="146" height="48" rx="8" fill="#2D3436"/>
<path d="M46.3942 38L47.3658 35.0149H52.0895L53.0611 38H56.027L51.5142 24.9091H47.9474L43.4283 38H46.3942ZM48.0689 32.8544L49.6797 27.9006H49.782L51.3928 32.8544H48.0689ZM57.7515 41.6818H60.4745V36.4276H60.5576C60.9347 37.2457 61.7593 38.1598 63.3445 38.1598C65.5817 38.1598 67.3268 36.3892 67.3268 33.1037C67.3268 29.7287 65.505 28.054 63.3509 28.054C61.7082 28.054 60.9219 29.032 60.5576 29.831H60.4362V28.1818H57.7515V41.6818ZM60.417 33.0909C60.417 31.3395 61.1585 30.2209 62.4816 30.2209C63.8303 30.2209 64.5462 31.3906 64.5462 33.0909C64.5462 34.804 63.8175 35.9929 62.4816 35.9929C61.1712 35.9929 60.417 34.8423 60.417 33.0909ZM69.3421 41.6818H72.0651V36.4276H72.1482C72.5254 37.2457 73.3499 38.1598 74.9352 38.1598C77.1724 38.1598 78.9174 36.3892 78.9174 33.1037C78.9174 29.7287 77.0957 28.054 74.9415 28.054C73.2988 28.054 72.5126 29.032 72.1482 29.831H72.0268V28.1818H69.3421V41.6818ZM72.0076 33.0909C72.0076 31.3395 72.7491 30.2209 74.0722 30.2209C75.421 30.2209 76.1369 31.3906 76.1369 33.0909C76.1369 34.804 75.4082 35.9929 74.0722 35.9929C72.7619 35.9929 72.0076 34.8423 72.0076 33.0909ZM92.4515 28.674H95.1042C95.0658 26.3409 93.1482 24.7301 90.2334 24.7301C87.3634 24.7301 85.2604 26.3153 85.2732 28.6932C85.2668 30.6236 86.6283 31.7294 88.8399 32.2599L90.2654 32.6179C91.6908 32.9631 92.4834 33.3722 92.4898 34.2543C92.4834 35.2131 91.5757 35.8651 90.1695 35.8651C88.7313 35.8651 87.6958 35.2003 87.6063 33.8899H84.928C84.9983 36.7216 87.0246 38.1854 90.2015 38.1854C93.3975 38.1854 95.2767 36.6577 95.2831 34.2607C95.2767 32.081 93.634 30.924 91.3584 30.4126L90.1823 30.1314C89.0445 29.8693 88.0921 29.4474 88.1113 28.5078C88.1113 27.6641 88.8591 27.044 90.2142 27.044C91.5374 27.044 92.3492 27.6449 92.4515 28.674ZM102.516 28.1818H100.669V25.8295H97.9457V28.1818H96.6033V30.2273H97.9457V35.3409C97.9329 37.2649 99.2433 38.2173 101.218 38.1342C101.922 38.1087 102.42 37.968 102.695 37.8786L102.267 35.8523C102.132 35.8778 101.845 35.9418 101.589 35.9418C101.046 35.9418 100.669 35.7372 100.669 34.983V30.2273H102.516V28.1818ZM108.82 38.1918C111.799 38.1918 113.653 36.1527 113.653 33.1293C113.653 30.0866 111.799 28.054 108.82 28.054C105.842 28.054 103.988 30.0866 103.988 33.1293C103.988 36.1527 105.842 38.1918 108.82 38.1918ZM108.833 36.0824C107.459 36.0824 106.756 34.8232 106.756 33.1101C106.756 31.397 107.459 30.1314 108.833 30.1314C110.182 30.1314 110.885 31.397 110.885 33.1101C110.885 34.8232 110.182 36.0824 108.833 36.0824ZM115.623 38H118.346V32.4453C118.346 31.2372 119.228 30.4062 120.43 30.4062C120.807 30.4062 121.325 30.4702 121.581 30.5533V28.1371C121.338 28.0795 120.999 28.0412 120.724 28.0412C119.625 28.0412 118.724 28.6804 118.366 29.8949H118.263V28.1818H115.623V38ZM127.206 38.1918C129.635 38.1918 131.271 37.0092 131.655 35.1875L129.136 35.0213C128.862 35.7692 128.158 36.1591 127.251 36.1591C125.889 36.1591 125.026 35.2578 125.026 33.794V33.7876H131.712V33.0398C131.712 29.7031 129.693 28.054 127.097 28.054C124.208 28.054 122.335 30.1058 122.335 33.1357C122.335 36.2486 124.183 38.1918 127.206 38.1918ZM125.026 32.1001C125.084 30.9815 125.934 30.0866 127.142 30.0866C128.325 30.0866 129.143 30.9304 129.149 32.1001H125.026Z" fill="white"/>
<path d="M51.1932 12H52.4659C52.0881 10.0312 50.4375 8.67898 48.2898 8.67898C45.6797 8.67898 43.8352 10.6875 43.8352 13.9091C43.8352 17.1307 45.6648 19.1392 48.3693 19.1392C50.7955 19.1392 52.5256 17.5234 52.5256 15.0028V13.9091H48.6477V15.0028H51.3324C51.2976 16.8324 50.0945 17.9858 48.3693 17.9858C46.4801 17.9858 45.0284 16.554 45.0284 13.9091C45.0284 11.2642 46.4801 9.83239 48.2898 9.83239C49.7614 9.83239 50.7607 10.6626 51.1932 12ZM57.9299 19.1591C59.481 19.1591 60.6145 18.3835 60.9725 17.2301L59.839 16.9119C59.5407 17.7074 58.8496 18.1051 57.9299 18.1051C56.5527 18.1051 55.6032 17.2152 55.5485 15.5795H61.0918V15.0824C61.0918 12.2386 59.4015 11.2642 57.8105 11.2642C55.7424 11.2642 54.3702 12.8949 54.3702 15.2415C54.3702 17.5881 55.7225 19.1591 57.9299 19.1591ZM55.5485 14.5653C55.628 13.3771 56.4682 12.3182 57.8105 12.3182C59.0833 12.3182 59.8986 13.2727 59.8986 14.5653H55.5485ZM66.4476 11.3636H64.8169V9.53409H63.6436V11.3636H62.4902V12.358H63.6436V17.1307C63.6436 18.4631 64.7175 19.0994 65.7118 19.0994C66.1493 19.0994 66.4277 19.0199 66.5868 18.9602L66.3482 17.9062C66.2488 17.9261 66.0897 17.9659 65.8311 17.9659C65.3141 17.9659 64.8169 17.8068 64.8169 16.8125V12.358H66.4476V11.3636ZM72.65 19H73.8233V11.3636H72.65V19ZM73.2466 10.0909C73.704 10.0909 74.0819 9.73295 74.0819 9.29545C74.0819 8.85795 73.704 8.5 73.2466 8.5C72.7892 8.5 72.4114 8.85795 72.4114 9.29545C72.4114 9.73295 72.7892 10.0909 73.2466 10.0909ZM79.5433 11.3636H77.9126V9.53409H76.7393V11.3636H75.5859V12.358H76.7393V17.1307C76.7393 18.4631 77.8132 19.0994 78.8075 19.0994C79.245 19.0994 79.5234 19.0199 79.6825 18.9602L79.4439 17.9062C79.3445 17.9261 79.1854 17.9659 78.9268 17.9659C78.4098 17.9659 77.9126 17.8068 77.9126 16.8125V12.358H79.5433V11.3636ZM89.1463 11.3636H87.4361V10.5881C87.4361 9.83239 87.7543 9.43466 88.5298 9.43466C88.8679 9.43466 89.0668 9.5142 89.1861 9.55398L89.5241 8.53977C89.3452 8.46023 88.9872 8.34091 88.4105 8.34091C87.3168 8.34091 86.2628 8.99716 86.2628 10.3097V11.3636H85.0298V12.358H86.2628V19H87.4361V12.358H89.1463V11.3636ZM91.0407 19H92.214V14.1676C92.214 13.1335 93.0293 12.3778 94.1429 12.3778C94.4561 12.3778 94.7793 12.4375 94.8588 12.4574V11.2642C94.7246 11.2543 94.4164 11.2443 94.2424 11.2443C93.3276 11.2443 92.5321 11.7614 92.2537 12.517H92.1742V11.3636H91.0407V19ZM99.3695 19.1591C101.438 19.1591 102.83 17.5881 102.83 15.2216C102.83 12.8352 101.438 11.2642 99.3695 11.2642C97.3013 11.2642 95.9093 12.8352 95.9093 15.2216C95.9093 17.5881 97.3013 19.1591 99.3695 19.1591ZM99.3695 18.1051C97.7985 18.1051 97.0826 16.7528 97.0826 15.2216C97.0826 13.6903 97.7985 12.3182 99.3695 12.3182C100.941 12.3182 101.656 13.6903 101.656 15.2216C101.656 16.7528 100.941 18.1051 99.3695 18.1051ZM104.871 19H106.044V14.2273C106.044 13.1087 106.859 12.3182 107.774 12.3182C108.664 12.3182 109.286 12.8999 109.286 13.7699V19H110.479V14.0284C110.479 13.044 111.095 12.3182 112.169 12.3182C113.004 12.3182 113.72 12.7607 113.72 13.8892V19H114.893V13.8892C114.893 12.0945 113.929 11.2642 112.567 11.2642C111.473 11.2642 110.673 11.7663 110.28 12.5568H110.2C109.822 11.7415 109.156 11.2642 108.152 11.2642C107.158 11.2642 106.422 11.7415 106.104 12.5568H106.004V11.3636H104.871V19Z" fill="white"/>
<path d="M31.0438 34.4984C29.8673 36.2343 28.6199 37.9281 26.7204 37.9561C24.8209 37.9981 24.2114 36.8502 22.0568 36.8502C19.888 36.8502 19.2218 37.9281 17.4215 37.9981C15.5646 38.0681 14.1612 36.1503 12.9705 34.4564C10.5466 30.9986 8.68964 24.629 11.1845 20.3453C12.4177 18.2175 14.629 16.8735 17.0246 16.8315C18.839 16.8035 20.5684 18.0495 21.6882 18.0495C22.7939 18.0495 24.8918 16.5516 27.089 16.7755C28.0104 16.8175 30.5902 17.1395 32.2487 19.5474C32.1211 19.6314 29.1727 21.3392 29.2011 24.881C29.2436 29.1087 32.9575 30.5226 33 30.5366C32.9575 30.6346 32.4046 32.5525 31.0438 34.4984ZM22.9498 12.0999C23.9846 10.9379 25.6998 10.056 27.1173 10C27.3016 11.6379 26.6354 13.2898 25.6431 14.4657C24.665 15.6556 23.0491 16.5796 21.4614 16.4536C21.2488 14.8437 22.0426 13.1638 22.9498 12.0999Z" fill="white"/>
</g>
<defs>
<clipPath id="clip0">
<rect width="1600" height="3215" fill="white" transform="translate(-930 -2924)"/>
</clipPath>
</defs>
</svg>
