<svg width="23" height="28" viewBox="0 0 23 28" fill="none" xmlns="http://www.w3.org/2000/svg">
<path d="M21.0438 24.4984C19.8673 26.2343 18.6199 27.9281 16.7204 27.9561C14.8209 27.9981 14.2114 26.8502 12.0568 26.8502C9.888 26.8502 9.22177 27.9281 7.42152 27.9981C5.56458 28.0681 4.16124 26.1503 2.97053 24.4564C0.546579 20.9986 -1.31036 14.629 1.18446 10.3453C2.4177 8.21745 4.62902 6.87354 7.02462 6.83155C8.83904 6.80355 10.5684 8.04947 11.6882 8.04947C12.7939 8.04947 14.8918 6.55157 17.089 6.77555C18.0104 6.81755 20.5902 7.13953 22.2487 9.54737C22.1211 9.63136 19.1727 11.3392 19.2011 14.881C19.2436 19.1087 22.9575 20.5226 23 20.5366C22.9575 20.6346 22.4046 22.5525 21.0438 24.4984ZM12.9498 2.09986C13.9846 0.937938 15.6998 0.0559963 17.1173 0C17.3016 1.63789 16.6354 3.28978 15.6431 4.4657C14.665 5.65562 13.0491 6.57956 11.4614 6.45357C11.2488 4.84368 12.0426 3.16379 12.9498 2.09986Z" fill="white"/>
</svg>
